<svg id="Layer_5" enable-background="new 0 0 64 64" height="512" viewBox="0 0 64 64" width="512" xmlns="http://www.w3.org/2000/svg"><g><circle cx="20" cy="56" r="3"/><circle cx="28" cy="56" r="3"/><path d="m33 49h2v-4h2v4h2v-4h2v4h2v-4c1.103 0 2-.897 2-2h4v-2h-4v-2h4v-2h-4v-2h4v-2h-4v-2h4v-2h-4v-2h4v-2h-4v-2h4v-2h-4c0-1.103-.897-2-2-2v-4h-2v4h-2v-4h-2v4h-2v-4h-2v4h-2v-4h-2v4h-2v-4h-2v4h-2v-4h-2v4c-1.103 0-2 .897-2 2h-4v2h4v2h-4v2h4v2h-4v2h4v2h-4v2h4v2h-4v2h4v2h-4v2h4c0 1.103.897 2 2 2v4h2v-4h2v4h2v-4h2v4h2v-4h2zm5-25c1.105 0 2 .895 2 2s-.895 2-2 2-2-.895-2-2 .895-2 2-2zm-12 16c-1.105 0-2-.895-2-2s.895-2 2-2 2 .895 2 2-.895 2-2 2zm1-13v6h-2v-8h8v2zm4 12v-2h6v-6h2v8z"/><path d="m45 7h2v4h14v-10h-14v4h-2v-4h-14v10h14zm10-2h2v2h-2zm-4 0h2v2h-2zm-14 2h-2v-2h2zm4 0h-2v-2h2z"/><path d="m13 49h-2v2h-2v-2h-2v2h-2v-2h-2v2h-2v10h2v2h2v-2h2v2h2v-2h2v2h2v-2h2v-10h-2zm-6 8h-2v-2h2zm4 0h-2v-2h2z"/><circle cx="60" cy="60" r="3"/><path d="m41 59h14v2h-14z"/><path d="m59 55h2v-24h-4.184c-.414-1.161-1.514-2-2.816-2-1.654 0-3 1.346-3 3s1.346 3 3 3c1.302 0 2.402-.839 2.816-2h2.184z"/><path d="m53 55h-20v2h22v-20h-2z"/><path d="m53 13h2v14h-2z"/><circle cx="60" cy="26" r="3"/><path d="m59 13h2v8h-2z"/><circle cx="4" cy="44" r="3"/><path d="m11 21h-2v3h-6v15h2v-13h6z"/><circle cx="10" cy="31" r="3"/><path d="m9 36h2v10h-2z"/><circle cx="4" cy="4" r="3"/><circle cx="26" cy="6" r="3"/><path d="m15 14h4v-7h2v-2h-4v7h-4v7h2z"/><path d="m5 8h-2v8h6v3h2v-5h-6z"/></g></svg>